<svg width="414" height="471" viewBox="0 0 414 471" fill="none" xmlns="http://www.w3.org/2000/svg">
<path fill-rule="evenodd" clip-rule="evenodd" d="M378.175 166.78L375.179 166.937L373.752 139.843C373.341 139.792 372.938 139.711 372.547 139.603L360.658 162.695L357.991 161.322L369.841 138.304C369.476 138.041 369.131 137.748 368.812 137.431L346.807 152.409L345.119 149.929L367.091 134.973C366.774 134.287 366.545 133.55 366.42 132.775L339.357 133.853L339.238 130.855L366.467 129.771C366.561 129.29 366.696 128.823 366.868 128.374L342.318 116.143L343.656 113.457L368.425 125.797C368.725 125.455 369.053 125.137 369.405 124.847L353.402 101.689L355.87 99.9837L372.033 123.372C372.306 123.278 372.586 123.197 372.872 123.13L371.392 95.0372L374.388 94.8794L375.868 122.972C376.443 123.044 377.002 123.173 377.538 123.355L390.947 97.3077L393.615 98.6809L380.165 124.806C380.443 125.032 380.708 125.276 380.956 125.536L404.639 109.415L406.327 111.895L382.615 128.035C382.765 128.383 382.893 128.742 382.996 129.113L411.181 127.991L411.3 130.988L383.282 132.104C383.254 132.451 383.205 132.792 383.136 133.127L408.101 145.565L406.763 148.25L382.014 135.92C381.811 136.243 381.587 136.553 381.343 136.845L396.803 159.216L394.335 160.922L379.037 138.784C378.333 139.189 377.564 139.495 376.748 139.685L378.175 166.78Z" fill="#83A17D"/>
<path d="M0.494089 0.0766955C5.6817 33.5033 34.6856 92.0508 109.2 58.8275C202.344 17.2984 206.46 22.5537 251.817 156.891C297.174 291.228 366.141 310.134 399.724 271.126C428.276 237.961 413.284 143.197 324.849 172.628C236.414 202.059 245.872 411.536 413.596 469.578" stroke="url(#paint0_linear_0_1)"/>
<defs>
<linearGradient id="paint0_linear_0_1" x1="537.41" y1="550.131" x2="63.0608" y2="46.2861" gradientUnits="userSpaceOnUse">
<stop offset="0.203415" stop-color="#143C3C"/>
<stop offset="0.553176" stop-color="white"/>
<stop offset="1" stop-opacity="0"/>
</linearGradient>
</defs>
</svg>
